<?xml version="1.0" encoding="UTF-8"?>
<svg id="Camada_1" data-name="Camada 1" xmlns="http://www.w3.org/2000/svg" viewBox="0 0 2397.11 1826.48">
  <defs>
    <style>
      .cls-1 {
        fill: #fff;
      }
    </style>
  </defs>
  <path class="cls-1" d="M2032.35,154.26c270.72,398.04,404.42,847.02,354.44,1363.89-.21,2.19-1.35,4.19-3.15,5.51-205.01,150.54-403.64,241.9-599.49,302.48-3.13.95-6.51-.2-8.42-2.85-45.25-62.95-86.36-129.32-122.37-199.02-2.07-4.11-.18-9.05,4.08-10.67,65.29-24.6,127.38-54.08,187.09-88.99,4.7-2.76,5-9.5.66-12.73-12.67-9.41-25.23-19.3-37.24-29.18-2.25-1.83-5.27-2.19-7.82-.96-387.7,179.03-812.41,179.03-1204.69,0-2.55-1.14-5.57-.75-7.76,1.05-11.99,9.89-24.57,19.69-37.13,29.09-4.34,3.24-3.99,9.98.75,12.73,59.72,34.25,121.8,64.39,187,89.11,4.22,1.62,6.23,6.44,4.14,10.55-35.24,69.79-76.35,136.16-122.43,199.11-2.01,2.55-5.3,3.72-8.42,2.76-194.91-60.59-393.54-151.95-598.56-302.48-1.71-1.32-2.94-3.42-3.12-5.6C-31.86,1070.97,53.27,618.28,364.02,154.17c.75-1.23,1.89-2.19,3.21-2.76C520.13,81.24,683.94,29.61,855.16.13c3.12-.48,6.23.96,7.85,3.72,21.15,37.45,45.34,85.49,61.7,124.74,180.47-27.57,363.76-27.57,548.01,0,16.36-38.41,39.7-87.28,60.77-124.74,1.54-2.81,4.71-4.3,7.85-3.72,171.3,29.57,335.11,81.2,487.9,151.29,1.35.57,2.46,1.53,3.12,2.85h0ZM1016.45,1004.33c1.89-132.17-94.48-241.54-215.44-241.54s-215.41,108.41-215.41,241.54,97.32,241.51,215.41,241.51,215.44-108.41,215.44-241.51ZM1812.95,1004.33c1.89-132.17-94.48-241.54-215.41-241.54s-215.44,108.41-215.44,241.54,97.32,241.51,215.44,241.51,215.41-108.41,215.41-241.51Z"/>
</svg>